<svg width="1512" height="98" viewBox="0 0 1512 98" fill="none" xmlns="http://www.w3.org/2000/svg">
<g clip-path="url(#clip0_31_17)">
<path d="M0 42L31.5 32L63 47L94.5 40L126 54L157.5 44L189 48L220.5 34L252 50L283.5 40L315 28L346.5 36L378 20L409.5 42L441 52L472.5 64L504 58L535.5 70L567 62L598.5 72L630 68L661.5 78L693 90L724.5 84L756 98L787.5 92L819 80L850.5 72L882 54L913.5 46L945 24L976.5 38L1008 32L1039.5 48L1071 60L1102.5 50L1134 68L1165.5 62L1197 48L1228.5 56L1260 40L1291.5 48L1323 34L1354.5 42L1386 24L1417.5 32L1449 18L1480.5 10L1512 0V162H0V42Z" fill="#F9F6F7"/>
</g>
<defs>
<clipPath id="clip0_31_17">
<rect width="1512" height="98" fill="white"/>
</clipPath>
</defs>
</svg>
