<svg width="1512" height="98" viewBox="0 0 1512 98" fill="none" xmlns="http://www.w3.org/2000/svg">
<g clip-path="url(#clip0_89_152)">
<path d="M1512 56L1480.5 66L1449 51L1417.5 58L1386 44L1354.5 54L1323 50L1291.5 64L1260 48L1228.5 58L1197 70L1165.5 62L1134 78L1102.5 56L1071 46L1039.5 34L1008 40L976.5 28L945 36L913.5 26L882 30L850.5 20L819 8L787.5 14L756 0L724.5 6L693 18L661.5 26L630 44L598.5 52L567 74L535.5 60L504 66L472.5 50L441 38L409.5 48L378 30L346.5 36L315 50L283.5 42L252 58L220.5 50L189 64L157.5 56L126 74L94.5001 66L63.0001 80L31.5001 88L0.00012207 98V-64L1512 -64V56Z" fill="#F9F6F7"/>
</g>
<defs>
<clipPath id="clip0_89_152">
<rect width="1512" height="98" fill="white" transform="matrix(-1 0 0 -1 1512 98)"/>
</clipPath>
</defs>
</svg>
